<?xml version="1.0" encoding="utf-8"?>
<!-- Generator: Adobe Illustrator 25.2.1, SVG Export Plug-In . SVG Version: 6.00 Build 0)  -->
<svg version="1.1" id="Livello_1" xmlns="http://www.w3.org/2000/svg" xmlns:xlink="http://www.w3.org/1999/xlink" x="0px" y="0px"
	 width="240px" height="240.6px" viewBox="0 0 240 240.6" style="enable-background:new 0 0 240 240.6;" xml:space="preserve">
<g transform="translate(0.000000,750.000000) scale(0.100000,-0.100000)">
	<path d="M1080.8,7299.6c-140.1-16.7-280.7-64.9-401.6-137.6c-111.9-67.1-220.7-167.3-295.6-271.8
		c-105.4-147.2-168.2-314.1-185.5-495.3c-5.6-56.9-2.5-186.7,5.6-239c17.6-113.5,44.2-196.9,94.9-299.9
		c55-111.6,111-188.6,201.3-277c161.4-157.4,371.6-254.8,600.7-277.9c40.8-4,154-4,195.4,0c199.7,19.8,391.1,100.2,546.9,229.7
		c38.3,31.8,105.7,100.5,137,139.7c108.5,136.3,178.4,292.5,207.5,464.7c12.1,71.7,10.2,83.2-4,26.9c-22.9-88.1-53.5-164.5-94.6-235
		c-231.3-396.4-709.5-562.1-1131.6-392.6c-208.7,83.8-376.3,238.4-477.4,440.6c-66.2,132.3-96.5,260.6-96.8,406.6
		c0,90.9,10.2,165.4,34.3,250.4c33.4,118.1,91.8,231.3,168.2,326.2c24.7,30.9,86.9,94,119.6,122.1c120,102,274.9,175.6,430.4,204.1
		c34.3,6.2,105.7,13.6,133.9,14.2c15.5,0.3,19.5,0.9,13.9,2.8C1270,7305.8,1121,7304.2,1080.8,7299.6z"/>
	<path d="M1212.2,7231.9c-97.4-12.1-180.6-36.5-267.4-78.5c-94.3-45.8-157.1-90.6-231.9-165.4c-70.8-70.8-114.7-131.1-157.7-215.2
		C493.4,6650.6,464,6527,464,6386.3c0-194.5,58.4-365.4,179-524c30-39.6,107.6-117.2,147.2-147.2c124.3-94.6,253.2-149,405-171.9
		c52.9-7.7,186.1-7.7,236.5,0c107.9,16.7,206.8,49.8,292.2,97.1c56,31.2,63.1,39.3,17,19.5c-177.2-77-380-84.7-563.3-22
		c-117.2,40.2-214.9,101.1-302.4,188.9c-125.5,125.2-200,276.4-226.3,459.1c-5.3,37.1-5.3,161.4,0.3,197.9
		c13.3,90,37.1,168.5,74.2,244.2c117.8,239.9,341.3,400.7,609.4,437.8c17,2.5,57.8,4.3,97.4,4.3c71.7,0,101.1-3.1,163.9-16.1
		c62.5-13,164.2-49.5,201.9-72.7c5.6-3.4,11.1-5.6,12.1-4.3c2.5,2.5,4.3,0.9-31.8,24.7c-106.7,69.6-233.7,115-362.7,130.2
		C1365.9,7237.4,1258,7237.4,1212.2,7231.9z"/>
	<path d="M1420.9,7107.9c-185.5-13.9-343.2-85-469.9-212.7c-139.7-140.7-213.9-329.6-207.8-529c3.4-108.5,26.3-200.7,73.3-296.8
		c84.4-172.2,236.2-304.8,416.8-364.8c14.2-4.6,26.3-7.7,26.9-7.1c0.9,0.6-12.1,8-28.4,16.7c-63.4,32.2-122.1,76.4-174.1,129.9
		c-94.3,97.7-156.1,218-179.3,349.1c-41.4,231.6,43.6,470.6,221.7,623.3c206.5,177.5,492.2,213.9,733.4,93.7
		c24.7-12.4,56.9-30.3,71.4-39.9c103.6-69.3,188.3-167.9,239.9-278.6c7.4-16.4,14.5-29.4,15.1-28.4c2.5,2.2-15.1,59.1-27.8,90.6
		c-29.7,73.9-74.2,147.2-126.1,207.1c-113.8,132.6-279.8,220.7-455.1,242.4C1522,7106.7,1443.5,7109.5,1420.9,7107.9z"/>
</g>
</svg>
